<svg xmlns="http://www.w3.org/2000/svg" width="1200" height="675" viewBox="0 0 1200 675" role="img" aria-label="knuba-research-seminar.svg">
  <defs>
    <linearGradient id="g" x1="0" x2="1" y1="0" y2="1"><stop offset="0%" stop-color="#d8c7ae"/><stop offset="100%" stop-color="#8d8a7a"/></linearGradient>
    <pattern id="mosaic" width="160" height="160" patternUnits="userSpaceOnUse">
      <rect width="160" height="160" fill="none"/>
      <rect x="0" y="0" width="60" height="60" rx="6" fill="#f2e7d5" opacity="0.95"/>
      <rect x="70" y="0" width="90" height="40" rx="6" fill="#a25f45" opacity="0.70"/>
      <rect x="70" y="50" width="40" height="50" rx="6" fill="#536d7a" opacity="0.75"/>
      <rect x="120" y="50" width="40" height="110" rx="6" fill="#f2e7d5" opacity="0.80"/>
      <rect x="0" y="70" width="50" height="90" rx="6" fill="#536d7a" opacity="0.50"/>
      <rect x="60" y="110" width="50" height="50" rx="6" fill="#a25f45" opacity="0.55"/>
    </pattern>
    <filter id="shadow" x="-20%" y="-20%" width="140%" height="140%"><feDropShadow dx="0" dy="12" stdDeviation="18" flood-color="#000" flood-opacity="0.18"/></filter>
  </defs>
  <rect width="1200" height="675" fill="url(#g)"/><rect width="1200" height="675" fill="url(#mosaic)" opacity="0.9"/><rect width="1200" height="675" fill="#ffffff" opacity="0.08"/>
  <g opacity="0.22"><rect x="815" y="80" width="280" height="280" rx="32" fill="#a25f45"/><rect x="885" y="160" width="210" height="330" rx="32" fill="#536d7a"/><rect x="755" y="385" width="240" height="180" rx="28" fill="#f2e7d5"/></g>
  <g filter="url(#shadow)"><rect x="56" y="52" width="680" height="571" rx="34" fill="#fffaf0" opacity="0.94"/><rect x="56" y="52" width="680" height="18" rx="8" fill="#a25f45" opacity="0.7"/></g>
  <text x="88" y="118" font-size="20" font-family="Arial, Helvetica, sans-serif" font-weight="700" letter-spacing="2.2" fill="#536d7a">SOCIAL</text>
  <text x="88" y="190" font-size="50" font-family="Arial, Helvetica, sans-serif" font-weight="800" fill="#2c241e"><tspan x="88" dy="0">KNUBA Research</tspan><tspan x="88" dy="54">Seminar and Quality</tspan><tspan x="88" dy="54">Cycle</tspan></text>
  <text x="88" y="352" font-size="26" font-family="Arial, Helvetica, sans-serif" font-weight="500" fill="#2c241e" opacity="0.74">Interim review, academic discussion, and transition toward the next research milestones.</text>
  <g><g transform="translate(790 150)"><rect x="0" y="0" width="300" height="220" rx="34" fill="#fffaf0" opacity="0.82"/><rect x="34" y="42" width="168" height="112" rx="16" fill="none" stroke="#2c241e" stroke-width="8"/><path d="M70 78 h96 M70 106 h78" stroke="#536d7a" stroke-width="8" stroke-linecap="round"/><circle cx="228" cy="86" r="24" fill="#a25f45" opacity="0.84"/><rect x="216" y="112" width="24" height="46" rx="10" fill="#a25f45" opacity="0.84"/><circle cx="86" cy="212" r="22" fill="#536d7a" opacity="0.9"/><circle cx="144" cy="212" r="22" fill="#a25f45" opacity="0.9"/><circle cx="202" cy="212" r="22" fill="#536d7a" opacity="0.9"/><path d="M62 244 q24 -18 48 0 M120 244 q24 -18 48 0 M178 244 q24 -18 48 0" fill="none" stroke="#2c241e" stroke-width="6" stroke-linecap="round"/><text x="0" y="308" font-size="24" font-family="Arial, Helvetica, sans-serif" font-weight="700" fill="#2c241e">RESEARCH DIALOGUE · REVIEW CYCLE</text></g></g>
  <text x="88" y="584" font-size="18" font-family="Arial, Helvetica, sans-serif" font-weight="700" letter-spacing="1.5" fill="#2c241e" opacity="0.68">CONTIMECH BLOG TILE · KYIV MOSAIC LANGUAGE</text>
</svg>