<svg xmlns="http://www.w3.org/2000/svg" viewBox="0 0 900 520" role="img" aria-label="Automotive and embedded systems illustration"><defs><linearGradient id="bg" x1="0" x2="1" y1="0" y2="1"><stop stop-color="#fff6e7"/><stop offset="1" stop-color="#e7eef4"/></linearGradient><linearGradient id="car" x1="0" x2="1"><stop stop-color="#3569a8"/><stop offset="1" stop-color="#0f7f7a"/></linearGradient><filter id="s"><feDropShadow dx="0" dy="18" stdDeviation="18" flood-color="#4f3314" flood-opacity=".18"/></filter></defs><rect width="900" height="520" rx="42" fill="url(#bg)"/><g opacity=".22" stroke="#b85f3d" stroke-width="2" fill="none"><path d="M120 110h660M120 180h660M120 250h660M120 320h660M120 390h660"/><path d="M190 70v380M310 70v380M430 70v380M550 70v380M670 70v380"/></g><g filter="url(#s)"><path d="M170 310c35-86 89-122 170-126h170c89 0 152 42 218 126v78H170z" fill="url(#car)"/><path d="M330 214h156c46 0 82 22 116 61H258c22-42 44-61 72-61z" fill="#fffaf0" opacity=".92"/><circle cx="300" cy="390" r="58" fill="#fffaf0" stroke="#9f7a3f" stroke-width="16"/><circle cx="610" cy="390" r="58" fill="#fffaf0" stroke="#9f7a3f" stroke-width="16"/><circle cx="300" cy="390" r="18" fill="#3569a8"/><circle cx="610" cy="390" r="18" fill="#0f7f7a"/></g><g filter="url(#s)"><rect x="370" y="250" width="170" height="96" rx="18" fill="#fffaf0" stroke="#d39a2b" stroke-width="7"/><rect x="403" y="274" width="104" height="48" rx="8" fill="#b85f3d" opacity=".88"/><path d="M455 250v-55M455 346v58M370 298h-80M540 298h80" stroke="#9f7a3f" stroke-width="8" stroke-linecap="round"/><circle cx="455" cy="195" r="12" fill="#0f7f7a"/><circle cx="455" cy="404" r="12" fill="#3569a8"/><circle cx="290" cy="298" r="12" fill="#d39a2b"/><circle cx="620" cy="298" r="12" fill="#b85f3d"/></g></svg>