<svg xmlns="http://www.w3.org/2000/svg" viewBox="0 0 900 520" role="img" aria-label="Industrial automation illustration"><defs><linearGradient id="bg" x1="0" x2="1" y1="0" y2="1"><stop stop-color="#fff6e7"/><stop offset="1" stop-color="#ecd7b8"/></linearGradient><linearGradient id="a" x1="0" x2="1"><stop stop-color="#0f7f7a"/><stop offset="1" stop-color="#3569a8"/></linearGradient><filter id="s" x="-20%" y="-20%" width="140%" height="140%"><feDropShadow dx="0" dy="18" stdDeviation="18" flood-color="#4f3314" flood-opacity=".18"/></filter></defs><rect width="900" height="520" rx="42" fill="url(#bg)"/><g opacity=".23" stroke="#b85f3d" stroke-width="2"><path d="M80 100h760M80 180h760M80 260h760M80 340h760M80 420h760"/><path d="M140 70v390M260 70v390M380 70v390M500 70v390M620 70v390M740 70v390"/></g><g filter="url(#s)"><rect x="120" y="290" width="660" height="64" rx="20" fill="#fffaf0" stroke="#caa56c" stroke-width="5"/><circle cx="190" cy="322" r="24" fill="#0f7f7a"/><circle cx="300" cy="322" r="24" fill="#d39a2b"/><circle cx="410" cy="322" r="24" fill="#b85f3d"/><circle cx="520" cy="322" r="24" fill="#3569a8"/><circle cx="630" cy="322" r="24" fill="#0f7f7a"/></g><g filter="url(#s)"><rect x="300" y="105" width="300" height="165" rx="24" fill="#fffaf0" stroke="#9f7a3f" stroke-width="6"/><rect x="330" y="135" width="240" height="45" rx="12" fill="#0f7f7a" opacity=".88"/><rect x="330" y="195" width="70" height="34" rx="9" fill="#d39a2b"/><rect x="420" y="195" width="70" height="34" rx="9" fill="#b85f3d"/><rect x="510" y="195" width="60" height="34" rx="9" fill="#3569a8"/></g><path d="M176 322 C260 208 336 190 450 188 C566 186 660 232 724 322" fill="none" stroke="url(#a)" stroke-width="20" stroke-linecap="round"/><g stroke="#9f7a3f" stroke-width="6" fill="none"><path d="M450 270v110"/><path d="M350 355v70M550 355v70"/></g><g fill="#9f7a3f"><circle cx="450" cy="380" r="10"/><circle cx="350" cy="425" r="10"/><circle cx="550" cy="425" r="10"/></g></svg>