<svg xmlns="http://www.w3.org/2000/svg" viewBox="0 0 900 520" role="img" aria-label="Robotics and simulation illustration"><defs><linearGradient id="bg" x1="0" x2="1" y1="0" y2="1"><stop stop-color="#fff8ea"/><stop offset="1" stop-color="#e6f2ec"/></linearGradient><linearGradient id="arm" x1="0" x2="1"><stop stop-color="#0f7f7a"/><stop offset="1" stop-color="#3569a8"/></linearGradient><filter id="s"><feDropShadow dx="0" dy="18" stdDeviation="18" flood-color="#4f3314" flood-opacity=".18"/></filter></defs><rect width="900" height="520" rx="42" fill="url(#bg)"/><g opacity=".28" fill="none" stroke="#d39a2b" stroke-width="3"><circle cx="450" cy="260" r="170"/><circle cx="450" cy="260" r="105"/><path d="M120 420C260 220 560 500 780 160"/><path d="M90 150C260 320 510 90 800 310"/></g><g opacity=".2" stroke="#0f7f7a" stroke-width="2"><path d="M90 110h720M90 190h720M90 270h720M90 350h720"/><path d="M180 80v360M300 80v360M420 80v360M540 80v360M660 80v360"/></g><g filter="url(#s)" stroke-linecap="round" stroke-linejoin="round"><path d="M310 375h220" stroke="#9f7a3f" stroke-width="26"/><circle cx="330" cy="365" r="50" fill="#fffaf0" stroke="#b85f3d" stroke-width="16"/><path d="M360 330L470 225" stroke="url(#arm)" stroke-width="42"/><circle cx="485" cy="210" r="48" fill="#fffaf0" stroke="#0f7f7a" stroke-width="16"/><path d="M515 210l105-72" stroke="#d39a2b" stroke-width="34"/><circle cx="640" cy="125" r="38" fill="#fffaf0" stroke="#3569a8" stroke-width="14"/><path d="M666 118l58-18M668 135l56 22" stroke="#b85f3d" stroke-width="11"/></g><g fill="#0f7f7a"><circle cx="710" cy="330" r="12"/><circle cx="760" cy="260" r="8"/><circle cx="230" cy="225" r="10"/><circle cx="210" cy="310" r="6"/></g></svg>