<svg xmlns="http://www.w3.org/2000/svg" width="1200" height="675" viewBox="0 0 1200 675" fill="none">
<rect width="1200" height="675" fill="#F4EBDD"/>
<rect x="0" y="0" width="180" height="140" fill="#A4523A"/>
<rect x="180" y="0" width="170" height="120" fill="#3569A8"/>
<rect x="350" y="0" width="170" height="160" fill="#0F7F7A"/>
<rect x="520" y="0" width="160" height="130" fill="#D39A2B"/>
<rect x="680" y="0" width="170" height="150" fill="#EFE5D6"/>
<rect x="850" y="0" width="170" height="120" fill="#83B55F"/>
<rect x="1020" y="0" width="180" height="170" fill="#3569A8"/>
<rect x="0" y="140" width="160" height="170" fill="#0F7F7A"/>
<rect x="160" y="120" width="190" height="170" fill="#F1E7D8"/>
<rect x="350" y="160" width="170" height="140" fill="#D39A2B"/>
<rect x="520" y="130" width="160" height="180" fill="#3569A8"/>
<rect x="680" y="150" width="160" height="150" fill="#C59B67"/>
<rect x="840" y="120" width="190" height="180" fill="#A4523A"/>
<rect x="1030" y="170" width="170" height="130" fill="#EFE5D6"/>
<rect x="0" y="310" width="180" height="170" fill="#D39A2B"/>
<rect x="180" y="290" width="160" height="190" fill="#3569A8"/>
<rect x="340" y="300" width="180" height="180" fill="#EFE5D6"/>
<rect x="520" y="310" width="170" height="160" fill="#0F7F7A"/>
<rect x="690" y="300" width="160" height="190" fill="#D39A2B"/>
<rect x="850" y="300" width="170" height="190" fill="#3569A8"/>
<rect x="1020" y="300" width="180" height="170" fill="#83B55F"/>
<rect x="0" y="480" width="160" height="195" fill="#EFE5D6"/>
<rect x="160" y="480" width="170" height="195" fill="#A4523A"/>
<rect x="330" y="480" width="190" height="195" fill="#0F7F7A"/>
<rect x="520" y="470" width="170" height="205" fill="#F1E7D8"/>
<rect x="690" y="490" width="170" height="185" fill="#3569A8"/>
<rect x="860" y="490" width="170" height="185" fill="#D39A2B"/>
<rect x="1030" y="470" width="170" height="205" fill="#3569A8"/>
<g opacity="0.17" stroke="#fffaf0" stroke-width="2"><path d="M0 140H1200M0 310H1200M0 480H1200M180 0V675M350 0V675M520 0V675M690 0V675M860 0V675M1030 0V675"/></g>
<g>
<rect x="210" y="180" width="780" height="320" rx="40" fill="#FFF9EF" fill-opacity="0.84" stroke="#8A6846" stroke-opacity="0.24"/>
<path d="M328 360C350 298 391 268 452 268H662C728 268 774 297 806 360L853 365C879 368 898 390 898 416V432C898 452 882 468 862 468H838C832 509 798 536 754 536C709 536 675 509 670 468H490C484 509 450 536 406 536C361 536 327 509 322 468H295C275 468 259 452 259 432V410C259 389 274 371 294 367L328 360Z" fill="#F0E4D2" stroke="#2E342D" stroke-width="12"/>
<path d="M398 285H643C690 285 726 302 753 346H349C361 307 376 285 398 285Z" fill="#BFD4EA" stroke="#2E342D" stroke-width="10"/>
<circle cx="406" cy="468" r="42" fill="#FFF4DD" stroke="#2E342D" stroke-width="12"/>
<circle cx="406" cy="468" r="18" fill="#3569A8"/>
<circle cx="754" cy="468" r="42" fill="#FFF4DD" stroke="#2E342D" stroke-width="12"/>
<circle cx="754" cy="468" r="18" fill="#0F7F7A"/>
<rect x="785" y="220" width="122" height="122" rx="22" fill="#FFF4DD" stroke="#2E342D" stroke-width="12"/>
<rect x="825" y="260" width="42" height="42" rx="8" fill="#D39A2B" stroke="#2E342D" stroke-width="8"/>
<path d="M846 220V197M846 365V342M785 281H762M930 281H907M802 236L786 220M890 342L906 358M890 220L906 204M802 342L786 358" stroke="#2E342D" stroke-width="10" stroke-linecap="round"/>
</g>
</svg>