<svg xmlns="http://www.w3.org/2000/svg" width="1200" height="675" viewBox="0 0 1200 675" fill="none">
<rect width="1200" height="675" fill="#F4EBDD"/>
<rect x="0" y="0" width="170" height="160" fill="#0F7F7A"/>
<rect x="170" y="0" width="150" height="120" fill="#D39A2B"/>
<rect x="320" y="0" width="150" height="170" fill="#3569A8"/>
<rect x="470" y="0" width="170" height="130" fill="#A4523A"/>
<rect x="640" y="0" width="180" height="150" fill="#C59B67"/>
<rect x="820" y="0" width="180" height="120" fill="#83B55F"/>
<rect x="1000" y="0" width="200" height="180" fill="#0F7F7A"/>
<rect x="0" y="160" width="120" height="150" fill="#D39A2B"/>
<rect x="120" y="120" width="200" height="170" fill="#EFE5D6"/>
<rect x="320" y="170" width="180" height="120" fill="#0F7F7A"/>
<rect x="500" y="130" width="170" height="180" fill="#D39A2B"/>
<rect x="670" y="150" width="170" height="150" fill="#3569A8"/>
<rect x="840" y="120" width="170" height="190" fill="#F1E7D8"/>
<rect x="1010" y="180" width="190" height="130" fill="#A4523A"/>
<rect x="0" y="310" width="180" height="160" fill="#3569A8"/>
<rect x="180" y="290" width="160" height="170" fill="#83B55F"/>
<rect x="340" y="290" width="160" height="200" fill="#EFE5D6"/>
<rect x="500" y="310" width="140" height="170" fill="#0F7F7A"/>
<rect x="640" y="300" width="190" height="170" fill="#D39A2B"/>
<rect x="830" y="310" width="170" height="180" fill="#3569A8"/>
<rect x="1000" y="310" width="200" height="160" fill="#C59B67"/>
<rect x="0" y="470" width="150" height="205" fill="#EFE5D6"/>
<rect x="150" y="460" width="170" height="215" fill="#A4523A"/>
<rect x="320" y="490" width="170" height="185" fill="#0F7F7A"/>
<rect x="490" y="480" width="160" height="195" fill="#F1E7D8"/>
<rect x="650" y="470" width="160" height="205" fill="#83B55F"/>
<rect x="810" y="490" width="180" height="185" fill="#D39A2B"/>
<rect x="990" y="470" width="210" height="205" fill="#3569A8"/>
<g opacity="0.18" stroke="#fffaf0" stroke-width="2">
<path d="M0 160H1200M0 310H1200M0 470H1200M170 0V675M320 0V675M500 0V675M670 0V675M840 0V675M1000 0V675"/>
</g>
<g>
<rect x="206" y="382" width="730" height="142" rx="28" fill="#FFF9EF" fill-opacity="0.86" stroke="#8A6846" stroke-opacity="0.24"/>
<path d="M270 482H400" stroke="#3E2F20" stroke-width="16" stroke-linecap="round"/>
<path d="M336 430V542" stroke="#3E2F20" stroke-width="14" stroke-linecap="round"/>
<path d="M470 420H796" stroke="#3E2F20" stroke-width="16" stroke-linecap="round"/>
<path d="M540 420V366H720V420" stroke="#3E2F20" stroke-width="14" stroke-linecap="round"/>
<rect x="520" y="432" width="220" height="70" rx="18" fill="#F0E3CF" stroke="#3E2F20" stroke-width="12"/>
<circle cx="562" cy="467" r="17" fill="#D39A2B" stroke="#3E2F20" stroke-width="10"/>
<circle cx="644" cy="467" r="17" fill="#0F7F7A" stroke="#3E2F20" stroke-width="10"/>
<circle cx="698" cy="467" r="17" fill="#3569A8" stroke="#3E2F20" stroke-width="10"/>
<path d="M805 445H874" stroke="#3E2F20" stroke-width="14" stroke-linecap="round"/>
<path d="M842 388V508" stroke="#3E2F20" stroke-width="14" stroke-linecap="round"/>
<circle cx="842" cy="368" r="29" fill="#FFF4D9" stroke="#3E2F20" stroke-width="12"/>
<path d="M842 368l18-10" stroke="#A4523A" stroke-width="10" stroke-linecap="round"/>
</g>
</svg>